<svg width="20" height="21" viewBox="0 0 20 21" fill="none" xmlns="http://www.w3.org/2000/svg">
<g clip-path="url(#clip0_42_103)">
<path d="M10.606 4.06592H9.35602V11.0234L13.8722 13.1698L14.4088 12.0408L10.606 10.2335V4.06592Z" fill="#373737"/>
<path d="M10 0.960449C4.82234 0.960449 0.625 5.15779 0.625 10.3354C0.625 15.5131 4.82234 19.7104 10 19.7104C15.1777 19.7104 19.375 15.5131 19.375 10.3354C19.375 5.15779 15.1777 0.960449 10 0.960449ZM10 18.4604C5.5127 18.4604 1.875 14.8228 1.875 10.3354C1.875 5.84814 5.5127 2.21045 10 2.21045C14.4873 2.21045 18.125 5.84814 18.125 10.3354C18.125 14.8228 14.4873 18.4604 10 18.4604Z" fill="#373737"/>
</g>
<defs>
<clipPath id="clip0_42_103">
<rect width="20" height="20" fill="white" transform="translate(0 0.335449)"/>
</clipPath>
</defs>
</svg>
