<svg width="29" height="29" viewBox="0 0 29 29" fill="none" xmlns="http://www.w3.org/2000/svg">
<path d="M25.4377 28.7188H25.2517C3.75954 27.4828 0.707976 9.34844 0.281414 3.81406C0.247043 3.38376 0.297917 2.9509 0.431121 2.54029C0.564325 2.12968 0.77724 1.74939 1.05767 1.42121C1.3381 1.09303 1.68052 0.823409 2.06533 0.627793C2.45014 0.432178 2.86977 0.314414 3.30016 0.281251H9.32673C9.76484 0.280827 10.193 0.411965 10.5557 0.657678C10.9184 0.903391 11.199 1.25236 11.3611 1.65938L13.0236 5.75C13.1837 6.14763 13.2234 6.58352 13.1378 7.00354C13.0523 7.42355 12.8452 7.80917 12.5424 8.1125L10.2127 10.4641C10.5766 12.5321 11.5669 14.4384 13.0497 15.9251C14.5326 17.4118 16.4363 18.4072 18.5033 18.7766L20.8767 16.425C21.1846 16.1255 21.5739 15.9232 21.9959 15.8435C22.418 15.7637 22.8542 15.81 23.2502 15.9766L27.3736 17.6281C27.7745 17.7953 28.1165 18.0781 28.3561 18.4404C28.5957 18.8027 28.722 19.2282 28.7189 19.6625V25.4375C28.7189 26.3077 28.3732 27.1423 27.7579 27.7577C27.1425 28.373 26.3079 28.7187 25.4377 28.7188ZM3.56266 2.46875C3.27258 2.46875 2.99438 2.58399 2.78927 2.7891C2.58415 2.99422 2.46891 3.27242 2.46891 3.5625V3.65C2.97204 10.125 6.1986 25.4375 25.372 26.5312C25.5157 26.5401 25.6598 26.5206 25.7959 26.4737C25.932 26.4267 26.0575 26.3534 26.1652 26.2579C26.2729 26.1624 26.3607 26.0466 26.4236 25.917C26.4864 25.7875 26.5231 25.6468 26.5314 25.5031V19.6625L22.408 18.0109L19.2689 21.1281L18.7439 21.0625C9.22829 19.8703 7.93766 10.3547 7.93766 10.2563L7.87204 9.73125L10.9783 6.59219L9.33767 2.46875H3.56266Z" fill="#373737"/>
</svg>
