<svg width="20" height="21" viewBox="0 0 20 21" fill="none" xmlns="http://www.w3.org/2000/svg">
<path d="M9.91892 5.31958C9.42446 5.31958 8.94111 5.4662 8.52999 5.74091C8.11887 6.01561 7.79844 6.40606 7.60922 6.86287C7.42 7.31969 7.37049 7.82235 7.46695 8.30731C7.56342 8.79226 7.80152 9.23772 8.15115 9.58735C8.50078 9.93698 8.94624 10.1751 9.43119 10.2715C9.91614 10.368 10.4188 10.3185 10.8756 10.1293C11.3324 9.94006 11.7229 9.61963 11.9976 9.20851C12.2723 8.79738 12.4189 8.31403 12.4189 7.81958C12.4182 7.15677 12.1545 6.52132 11.6858 6.05265C11.2172 5.58397 10.5817 5.32033 9.91892 5.31958ZM9.91892 9.06958C9.67169 9.06958 9.43001 8.99627 9.22445 8.85892C9.01889 8.72156 8.85868 8.52634 8.76407 8.29793C8.66946 8.06953 8.6447 7.81819 8.69293 7.57572C8.74117 7.33324 8.86022 7.11051 9.03503 6.9357C9.20985 6.76088 9.43258 6.64183 9.67505 6.5936C9.91753 6.54537 10.1689 6.57012 10.3973 6.66473C10.6257 6.75934 10.8209 6.91956 10.9583 7.12512C11.0956 7.33068 11.1689 7.57235 11.1689 7.81958C11.1685 8.15098 11.0367 8.4687 10.8024 8.70304C10.568 8.93738 10.2503 9.0692 9.91892 9.06958Z" fill="#373737"/>
<path d="M14.7229 3.01172C13.5351 1.82424 11.9496 1.11883 10.2723 1.03163C8.59496 0.944432 6.94481 1.48163 5.64029 2.53955C4.33578 3.59746 3.46937 5.1011 3.2083 6.76025C2.94722 8.41941 3.30999 10.1165 4.22657 11.5239L8.9495 18.7744C9.0546 18.9357 9.19831 19.0683 9.36759 19.16C9.53688 19.2518 9.72639 19.2998 9.91894 19.2998C10.1115 19.2998 10.301 19.2518 10.4703 19.16C10.6396 19.0683 10.7833 18.9357 10.8884 18.7744L15.6115 11.5239C16.4619 10.2183 16.8378 8.66004 16.676 7.1103C16.5143 5.56055 15.8247 4.11352 14.7229 3.01172ZM14.5641 10.8416L9.91896 17.9724L5.27376 10.8416C3.85189 8.6588 4.15685 5.7377 5.99888 3.89559C6.51366 3.38079 7.12481 2.97243 7.79742 2.69382C8.47003 2.41521 9.19093 2.27181 9.91896 2.27181C10.647 2.27181 11.3679 2.41521 12.0405 2.69382C12.7131 2.97243 13.3242 3.38079 13.839 3.89559C15.6811 5.7377 15.986 8.6588 14.5641 10.8416Z" fill="#373737"/>
</svg>
